<?xml version="1.0" encoding="UTF-8" standalone="no"?>
<!-- Created with Inkscape (http://www.inkscape.org/) -->

<svg
   width="68.548805mm"
   height="51.582401mm"
   viewBox="0 0 68.548805 51.582401"
   version="1.1"
   id="svg1"
   inkscape:version="1.3.2 (091e20e, 2023-11-25, custom)"
   sodipodi:docname="camera.svg"
   xmlns:inkscape="http://www.inkscape.org/namespaces/inkscape"
   xmlns:sodipodi="http://sodipodi.sourceforge.net/DTD/sodipodi-0.dtd"
   xmlns="http://www.w3.org/2000/svg"
   xmlns:svg="http://www.w3.org/2000/svg">
  <sodipodi:namedview
     id="namedview1"
     pagecolor="#ffffff"
     bordercolor="#000000"
     borderopacity="0.25"
     inkscape:showpageshadow="2"
     inkscape:pageopacity="0.0"
     inkscape:pagecheckerboard="0"
     inkscape:deskcolor="#d1d1d1"
     inkscape:document-units="mm"
     inkscape:zoom="1.4485269"
     inkscape:cx="320.32542"
     inkscape:cy="61.096551"
     inkscape:window-width="1920"
     inkscape:window-height="1009"
     inkscape:window-x="-8"
     inkscape:window-y="-8"
     inkscape:window-maximized="1"
     inkscape:current-layer="layer1" />
  <defs
     id="defs1" />
  <g
     inkscape:label="Layer 1"
     inkscape:groupmode="layer"
     id="layer1"
     transform="translate(-61.671679,-94.660364)">
    <path
       id="rect2"
       style="fill:none;stroke:#000000;stroke-width:4.177;stroke-dasharray:none"
       d="m 84.57985,97.252979 c -0.910726,0 -1.643827,2.602686 -1.643827,5.835301 0,0.0721 0.0024,0.14202 0.0031,0.21342 h -8.58759 c -5.588295,0 -10.08724,4.49895 -10.08724,10.08724 v 20.17448 c 0,5.5883 4.498945,10.08673 10.08724,10.08673 h 43.189097 c 5.58829,0 10.08724,-4.49843 10.08724,-10.08673 v -20.17448 c 0,-5.58829 -4.49895,-10.08724 -10.08724,-10.08724 h -6.86366 c 7.2e-4,-0.0714 0.003,-0.14136 0.003,-0.21342 0,-3.232615 -0.73311,-5.835301 -1.64383,-5.835301 z" />
    <circle
       style="fill:none;stroke:#000000;stroke-width:4.17686;stroke-dasharray:none"
       id="path1"
       cx="96.44281"
       cy="123.47603"
       r="13.82817" />
  </g>
</svg>
