<?xml version="1.0" encoding="UTF-8" standalone="no"?>
<!-- Created with Inkscape (http://www.inkscape.org/) -->

<svg
   width="68.548805mm"
   height="51.582401mm"
   viewBox="0 0 68.548805 51.582401"
   version="1.1"
   id="svg1"
   inkscape:version="1.3.2 (091e20e, 2023-11-25, custom)"
   sodipodi:docname="camera.svg"
   inkscape:export-filename="camera.png"
   inkscape:export-xdpi="96"
   inkscape:export-ydpi="96"
   xmlns:inkscape="http://www.inkscape.org/namespaces/inkscape"
   xmlns:sodipodi="http://sodipodi.sourceforge.net/DTD/sodipodi-0.dtd"
   xmlns="http://www.w3.org/2000/svg"
   xmlns:svg="http://www.w3.org/2000/svg">
  <sodipodi:namedview
     id="namedview1"
     pagecolor="#ffffff"
     bordercolor="#000000"
     borderopacity="0.25"
     inkscape:showpageshadow="2"
     inkscape:pageopacity="0.0"
     inkscape:pagecheckerboard="0"
     inkscape:deskcolor="#d1d1d1"
     inkscape:document-units="mm"
     inkscape:zoom="1.4485269"
     inkscape:cx="320.32543"
     inkscape:cy="61.096553"
     inkscape:window-width="1920"
     inkscape:window-height="1009"
     inkscape:window-x="-8"
     inkscape:window-y="-8"
     inkscape:window-maximized="1"
     inkscape:current-layer="layer1" />
  <defs
     id="defs1" />
  <g
     inkscape:label="Layer 1"
     inkscape:groupmode="layer"
     id="layer1"
     transform="translate(-61.671679,-94.660364)">
    <path
       id="rect2"
       style="fill:none;stroke:#000000;stroke-width:4.177;stroke-dasharray:none"
       d="m 86.221954,97.119876 c -0.793787,0 -1.432756,2.617619 -1.432756,5.868784 0,0.0725 0.0021,0.14283 0.0027,0.21464 h -7.484926 c -4.870748,0 -8.792019,4.52476 -8.792019,10.14511 v 20.29024 c 0,5.62036 3.921271,10.14461 8.792019,10.14461 h 37.643538 c 4.87074,0 8.79202,-4.52425 8.79202,-10.14461 v -20.29024 c 0,-5.62035 -3.92128,-10.14511 -8.79202,-10.14511 h -5.98236 c 6.3e-4,-0.0718 0.003,-0.14217 0.003,-0.21464 0,-3.251165 -0.63898,-5.868784 -1.43277,-5.868784 z" />
    <circle
       style="fill:none;stroke:#000000;stroke-width:4.17686;stroke-dasharray:none"
       id="path1"
       cx="96.44281"
       cy="123.47603"
       r="13.82817" />
  </g>
</svg>
