<?xml version="1.0" encoding="UTF-8" standalone="no"?>
<!-- Created with Inkscape (http://www.inkscape.org/) -->

<svg
   width="256"
   height="256"
   viewBox="0 0 67.733333 67.733332"
   version="1.1"
   id="svg1"
   inkscape:version="1.3.2 (091e20e, 2023-11-25, custom)"
   sodipodi:docname="gwicap_logo.svg"
   inkscape:export-filename="gwicap_logo.png"
   inkscape:export-xdpi="96"
   inkscape:export-ydpi="96"
   xmlns:inkscape="http://www.inkscape.org/namespaces/inkscape"
   xmlns:sodipodi="http://sodipodi.sourceforge.net/DTD/sodipodi-0.dtd"
   xmlns="http://www.w3.org/2000/svg"
   xmlns:svg="http://www.w3.org/2000/svg">
  <sodipodi:namedview
     id="namedview1"
     pagecolor="#ffffff"
     bordercolor="#000000"
     borderopacity="0.25"
     inkscape:showpageshadow="2"
     inkscape:pageopacity="0.0"
     inkscape:pagecheckerboard="0"
     inkscape:deskcolor="#d1d1d1"
     inkscape:document-units="mm"
     inkscape:zoom="1.5340488"
     inkscape:cx="86.046805"
     inkscape:cy="126.13679"
     inkscape:window-width="1920"
     inkscape:window-height="1057"
     inkscape:window-x="-8"
     inkscape:window-y="-8"
     inkscape:window-maximized="1"
     inkscape:current-layer="layer1" />
  <defs
     id="defs1">
    <rect
       x="46.934621"
       y="29.334138"
       width="182.52353"
       height="88.002414"
       id="rect2" />
    <rect
       x="46.93462"
       y="29.334139"
       width="182.52353"
       height="88.002411"
       id="rect2-4" />
    <rect
       x="46.93462"
       y="29.334139"
       width="182.52353"
       height="88.002411"
       id="rect2-3" />
  </defs>
  <g
     inkscape:label="Layer 1"
     inkscape:groupmode="layer"
     id="layer1">
    <path
       id="path1"
       style="fill:#006400;fill-opacity:1;stroke:#000000;stroke-width:0"
       d="M 34.137976,32.252699 A 33.287339,17.9738 0 0 0 0.85041289,50.22589 a 33.287339,17.9738 0 0 0 0.18748031,1.668584 7.4976059,5.0250603 62.403102 0 1 0.6986913,0.500918 7.4976059,5.0250603 62.403102 0 1 3.7790344,6.94446 33.287339,17.9738 0 0 0 0.9668326,0.769326 6.7934008,5.5459589 58.261143 0 1 5.2287395,-0.94029 6.7934008,5.5459589 58.261143 0 1 4.945338,6.294808 33.287339,17.9738 0 0 0 0.679071,0.201735 6.4410487,5.849346 61.757957 0 1 5.61569,-2.762739 6.4410487,5.849346 61.757957 0 1 5.359538,4.976692 33.287339,17.9738 0 0 0 0.512301,0.04102 6.0026347,6.2765643 0 0 1 5.678907,-4.286007 6.0026347,6.2765643 0 0 1 5.68436,4.263781 33.287339,17.9738 0 0 0 0.53955,-0.07351 5.736864,6.5673376 30.926806 0 1 5.14154,-5.151072 5.736864,6.5673376 30.926806 0 1 5.93833,2.779835 33.287339,17.9738 0 0 0 0.607128,-0.235928 5.5250834,6.8190685 31.696562 0 1 4.700089,-5.381871 5.5250834,6.8190685 31.696562 0 1 4.619427,0.381246 33.287339,17.9738 0 0 0 0.244162,-0.22225 5.0206101,7.5042519 27.543138 0 1 3.804105,-8.264283 5.0206101,7.5042519 27.543138 0 1 1.583774,-0.97961 33.287339,17.9738 0 0 0 0.06103,-0.524853 33.287339,17.9738 0 0 0 -33.287564,-17.973188 z" />
    <text
       xml:space="preserve"
       transform="matrix(0.44276053,0,0,0.44276053,-16.876792,-11.072809)"
       id="text2"
       style="font-size:66.6667px;font-family:Arial;-inkscape-font-specification:Arial;letter-spacing:0px;white-space:pre;shape-inside:url(#rect2);display:inline;fill:#006400;fill-opacity:1;stroke:#ffffff;stroke-width:0;stroke-opacity:1;stroke-dasharray:none"><tspan
         x="46.935547"
         y="89.384311"
         id="tspan4"><tspan
           style="font-weight:bold"
           id="tspan1">GWI</tspan></tspan></text>
    <text
       xml:space="preserve"
       transform="matrix(0.41394502,0,0,0.41394502,-13.774812,21.591316)"
       id="text2-9"
       style="font-size:66.6667px;font-family:Arial;-inkscape-font-specification:Arial;letter-spacing:0px;white-space:pre;shape-inside:url(#rect2-3);display:inline;fill:#006400;fill-opacity:1;stroke:#000000;stroke-width:0"><tspan
         x="46.935547"
         y="89.384311"
         id="tspan6"><tspan
           style="font-weight:bold;fill:#ffffff"
           id="tspan5">CAP</tspan></tspan></text>
  </g>
</svg>
