<?xml version="1.0" encoding="UTF-8" standalone="no"?>
<!-- Created with Inkscape (http://www.inkscape.org/) -->

<svg
   width="256"
   height="256"
   viewBox="0 0 67.733333 67.733332"
   version="1.1"
   id="svg1"
   inkscape:version="1.3.2 (091e20e, 2023-11-25, custom)"
   sodipodi:docname="gwicap_logo.svg"
   inkscape:export-filename="gwicap_logo.png"
   inkscape:export-xdpi="96"
   inkscape:export-ydpi="96"
   xmlns:inkscape="http://www.inkscape.org/namespaces/inkscape"
   xmlns:sodipodi="http://sodipodi.sourceforge.net/DTD/sodipodi-0.dtd"
   xmlns="http://www.w3.org/2000/svg"
   xmlns:svg="http://www.w3.org/2000/svg">
  <sodipodi:namedview
     id="namedview1"
     pagecolor="#ffffff"
     bordercolor="#000000"
     borderopacity="0.25"
     inkscape:showpageshadow="2"
     inkscape:pageopacity="0.0"
     inkscape:pagecheckerboard="0"
     inkscape:deskcolor="#d1d1d1"
     inkscape:document-units="mm"
     inkscape:zoom="1.5340488"
     inkscape:cx="86.046805"
     inkscape:cy="126.13679"
     inkscape:window-width="1920"
     inkscape:window-height="1009"
     inkscape:window-x="-8"
     inkscape:window-y="-8"
     inkscape:window-maximized="1"
     inkscape:current-layer="layer1" />
  <defs
     id="defs1">
    <rect
       x="46.934621"
       y="29.334138"
       width="182.52353"
       height="88.002414"
       id="rect2" />
    <rect
       x="46.93462"
       y="29.334139"
       width="182.52353"
       height="88.002411"
       id="rect2-4" />
    <rect
       x="46.93462"
       y="29.334139"
       width="182.52353"
       height="88.002411"
       id="rect2-3" />
  </defs>
  <g
     inkscape:label="Layer 1"
     inkscape:groupmode="layer"
     id="layer1">
    <path
       id="path1"
       style="fill:#006400;fill-opacity:1;stroke:#000000;stroke-width:0"
       d="M 33.965502,32.252699 A 33.459812,17.9738 0 0 0 0.50546515,50.22589 a 33.459812,17.9738 0 0 0 0.18845171,1.668584 7.5060152,5.0454379 62.080955 0 1 0.70231144,0.500918 7.5060152,5.0454379 62.080955 0 1 3.7986148,6.94446 33.459812,17.9738 0 0 0 0.9718421,0.769326 6.8033068,5.5665772 57.591822 0 1 5.2558318,-0.94029 6.8033068,5.5665772 57.591822 0 1 4.970961,6.294808 33.459812,17.9738 0 0 0 0.682589,0.201735 6.4488274,5.8725612 60.434824 0 1 5.644787,-2.762739 6.4488274,5.8725612 60.434824 0 1 5.387308,4.976692 33.459812,17.9738 0 0 0 0.514955,0.04102 6.0337363,6.2765643 0 0 1 5.708331,-4.286007 6.0337363,6.2765643 0 0 1 5.713813,4.263781 33.459812,17.9738 0 0 0 0.542346,-0.07351 5.7584958,6.5765671 31.915665 0 1 5.16818,-5.151072 5.7584958,6.5765671 31.915665 0 1 5.969098,2.779835 33.459812,17.9738 0 0 0 0.610274,-0.235928 5.5456485,6.8289819 32.341835 0 1 4.724442,-5.381871 5.5456485,6.8289819 32.341835 0 1 4.643361,0.381246 33.459812,17.9738 0 0 0 0.245427,-0.22225 5.0409901,7.5126382 27.863583 0 1 3.823816,-8.264283 5.0409901,7.5126382 27.863583 0 1 1.59198,-0.97961 33.459812,17.9738 0 0 0 0.06135,-0.524853 33.459812,17.9738 0 0 0 -33.460038,-17.973188 z" />
    <text
       xml:space="preserve"
       transform="matrix(0.44276053,0,0,0.44276053,-17.405959,-11.072809)"
       id="text2"
       style="font-size:66.6667px;font-family:Arial;-inkscape-font-specification:Arial;letter-spacing:0px;white-space:pre;shape-inside:url(#rect2);display:inline;fill:#006400;fill-opacity:1;stroke:#ffffff;stroke-width:0;stroke-dasharray:none;stroke-opacity:1"><tspan
         x="46.935547"
         y="89.384311"
         id="tspan4"><tspan
           style="font-weight:bold"
           id="tspan1">GWI</tspan></tspan></text>
    <text
       xml:space="preserve"
       transform="matrix(0.41394502,0,0,0.41394502,-14.303979,21.062149)"
       id="text2-9"
       style="font-size:66.6667px;font-family:Arial;-inkscape-font-specification:Arial;letter-spacing:0px;white-space:pre;shape-inside:url(#rect2-3);display:inline;fill:#006400;fill-opacity:1;stroke:#000000;stroke-width:0"><tspan
         x="46.935547"
         y="89.384311"
         id="tspan6"><tspan
           style="font-weight:bold;fill:#ffffff"
           id="tspan5">CAP</tspan></tspan></text>
  </g>
</svg>
